<svg width="28.67" height="30.05" viewBox="0 0 42 44" fill="none" xmlns="http://www.w3.org/2000/svg">
<path d="M32.0448 14.6612V9.57025C32.7185 9.25554 33.289 8.75584 33.6897 8.12937C34.0904 7.5029 34.3049 6.77544 34.3082 6.03174V5.91273C34.3054 4.87342 33.8914 3.87746 33.1566 3.14255C32.4218 2.40764 31.426 1.99354 30.3869 1.99075H30.2679C29.2287 1.99354 28.233 2.40764 27.4982 3.14255C26.7634 3.87746 26.3493 4.87342 26.3466 5.91273V6.03174C26.3499 6.77544 26.5644 7.5029 26.9651 8.12937C27.3658 8.75584 27.9363 9.25554 28.61 9.57025V14.6717C26.673 14.968 24.8486 15.7708 23.3216 16.999L9.32325 6.09521C9.58972 5.09742 9.50225 4.0381 9.07573 3.09754C8.64921 2.15698 7.91 1.39331 6.9839 0.936494C6.0578 0.479675 5.00205 0.357938 3.99631 0.592001C2.99057 0.826065 2.09701 1.40146 1.46769 2.22027C0.838367 3.03908 0.51218 4.0507 0.54464 5.08297C0.577101 6.11523 0.966204 7.10435 1.64573 7.88199C2.32525 8.65963 3.2532 9.17773 4.27166 9.34812C5.29011 9.51851 6.33613 9.33066 7.23169 8.81653L20.9947 19.5326C19.7551 21.4031 19.1083 23.6041 19.139 25.848C19.1696 28.092 19.8763 30.2745 21.1666 32.1104L16.9782 36.2995C16.642 36.1924 16.2918 36.1354 15.939 36.1303C15.2199 36.1303 14.517 36.3435 13.9191 36.7431C13.3212 37.1427 12.8552 37.7106 12.58 38.375C12.3048 39.0395 12.2328 39.7707 12.3731 40.476C12.5134 41.1814 12.8597 41.8294 13.3681 42.3379C13.8766 42.8465 14.5244 43.1928 15.2297 43.3331C15.935 43.4734 16.666 43.4014 17.3304 43.1262C17.9947 42.851 18.5625 42.3849 18.962 41.7869C19.3615 41.1889 19.5748 40.4858 19.5748 39.7666C19.5698 39.4137 19.5128 39.0635 19.4056 38.7273L23.549 34.5831C24.9015 35.6164 26.4723 36.327 28.1412 36.6605C29.8102 36.9941 31.5333 36.9418 33.179 36.5078C34.8248 36.0737 36.3495 35.2693 37.637 34.156C38.9245 33.0426 39.9406 31.6498 40.6078 30.0838C41.275 28.5178 41.5757 26.82 41.4868 25.1201C41.3979 23.4202 40.9219 21.763 40.095 20.2752C39.2682 18.7873 38.1123 17.5081 36.7158 16.5351C35.3192 15.5621 33.7188 14.9212 32.0369 14.6612H32.0448ZM30.3208 31.4334C29.1874 31.4308 28.0803 31.0922 27.1392 30.4605C26.1982 29.8288 25.4655 28.9323 25.0337 27.8842C24.6019 26.8362 24.4905 25.6836 24.7134 24.5722C24.9362 23.4608 25.4835 22.4404 26.286 21.64C27.0885 20.8396 28.1103 20.295 29.2221 20.0752C30.3339 19.8553 31.486 19.97 32.5326 20.4048C33.5793 20.8395 34.4737 21.5748 35.1027 22.5178C35.7317 23.4607 36.0671 24.5689 36.0666 25.7025C36.0666 27.2231 35.4626 28.6815 34.3876 29.7567C33.3125 30.832 31.8544 31.436 30.334 31.436" fill="#FF7A59"/>
</svg>
